<svg viewBox="0 0 19 19" fill="none" xmlns="http://www.w3.org/2000/svg">
<path fill-rule="evenodd" clip-rule="evenodd" d="M4.54925 0.5C4.9653 0.5 5.30258 0.849997 5.30258 1.28174V3.01995C8.14286 2.75746 11 2.75746 13.8403 3.01995V1.28174C13.8403 0.849997 14.1776 0.5 14.5936 0.5C15.0097 0.5 15.347 0.849997 15.347 1.28174V3.17505C16.8466 3.39509 18.0314 4.626 18.2319 6.19612L18.3189 6.8767C18.6845 9.73926 18.653 12.6414 18.2251 15.4947C18.0132 16.9081 16.9066 17.9938 15.5348 18.1341L14.3365 18.2568C11.1675 18.5811 7.97536 18.5811 4.80631 18.2568L3.60802 18.1341C2.23621 17.9938 1.12967 16.9081 0.917719 15.4947C0.48987 12.6414 0.45829 9.73926 0.823941 6.87671L0.910877 6.19612C1.11144 4.62598 2.29622 3.39506 3.79592 3.17504V1.28174C3.79592 0.849997 4.1332 0.5 4.54925 0.5ZM4.99639 4.62009C8.03902 4.30872 11.1038 4.30872 14.1464 4.62009L15.0559 4.71316C15.9265 4.80226 16.6234 5.50162 16.7384 6.40156L16.8253 7.08215C16.8557 7.31991 16.8831 7.55797 16.9077 7.79625H2.23509C2.25968 7.55797 2.28716 7.31992 2.31753 7.08215L2.40447 6.40157C2.51942 5.50162 3.21633 4.80226 4.08692 4.71316L4.99639 4.62009ZM2.11533 9.35973C2.01671 11.3277 2.11387 13.3031 2.40646 15.2543C2.51277 15.9633 3.0678 16.5078 3.75588 16.5782L4.95418 16.7008C8.02489 17.0151 11.1179 17.0151 14.1886 16.7008L15.3869 16.5782C16.075 16.5078 16.6301 15.9633 16.7364 15.2543C17.0289 13.3031 17.1261 11.3277 17.0275 9.35973H2.11533Z" fill="black" fill-opacity="0.5"/>
</svg>
