<svg width="15" height="15" viewBox="0 0 15 15" fill="none" xmlns="http://www.w3.org/2000/svg">
<path fill-rule="evenodd" clip-rule="evenodd" d="M5 0C2.23858 0 0 2.23858 0 5V10C0 12.7614 2.23858 15 5 15H10C12.7614 15 15 12.7614 15 10V5C15 2.23858 12.7614 0 10 0H5ZM11.0304 5.23691C11.4013 5.57479 11.428 6.14934 11.0902 6.52021L8.33378 9.5457C8.30966 9.58738 8.2819 9.62768 8.25046 9.66618C7.9331 10.0548 7.36083 10.1125 6.97225 9.79514L4.33382 7.64029C3.94524 7.32294 3.88751 6.75066 4.20486 6.36208C4.52222 5.97351 5.09449 5.91577 5.48307 6.23313L7.43876 7.83037L9.74713 5.29663C10.085 4.92577 10.6596 4.89902 11.0304 5.23691Z" fill="#F5C678" fill-opacity="0.7"/>
</svg>
