<svg  viewBox="0 0 18 17" fill="none" xmlns="http://www.w3.org/2000/svg">
<path d="M9.86222 6.02399C9.86222 6.47111 9.49976 6.83357 9.05264 6.83357C8.60551 6.83357 8.24305 6.47111 8.24305 6.02399C8.24305 5.57686 8.60551 5.2144 9.05264 5.2144C9.49976 5.2144 9.86222 5.57686 9.86222 6.02399Z" fill="#F5C678"/>
<path d="M9.05264 8.25035C9.38798 8.25035 9.65983 8.5222 9.65983 8.85754V12.9055C9.65983 13.2408 9.38798 13.5127 9.05264 13.5127C8.71729 13.5127 8.44544 13.2408 8.44544 12.9055V8.85754C8.44544 8.5222 8.71729 8.25035 9.05264 8.25035Z" fill="#F5C678"/>
<path fill-rule="evenodd" clip-rule="evenodd" d="M10.8907 1.97009C10.0066 0.67664 8.09861 0.676635 7.21456 1.97009L6.86488 2.4817C4.6741 5.68703 2.79184 9.09266 1.24332 12.653L1.17029 12.8209C0.624579 14.0755 1.44903 15.5002 2.80877 15.6522C6.95842 16.1159 11.1468 16.1159 15.2965 15.6522C16.6562 15.5002 17.4807 14.0755 16.935 12.8209L16.8619 12.653C15.3134 9.09266 13.4311 5.68704 11.2404 2.4817L10.8907 1.97009ZM8.21714 2.65533C8.61898 2.0674 9.48626 2.0674 9.8881 2.65533L10.2378 3.16695C12.3853 6.30897 14.2304 9.64733 15.7483 13.1373L15.8213 13.3052C16.0411 13.8104 15.7091 14.3841 15.1616 14.4453C11.1016 14.8991 7.00366 14.8991 2.94366 14.4453C2.39614 14.3841 2.06416 13.8104 2.28389 13.3052L2.35693 13.1373C3.87487 9.64733 5.71995 6.30897 7.86746 3.16694L8.21714 2.65533Z" fill="#F5C678"/>
<path d="M9.86222 6.02399C9.86222 6.47111 9.49976 6.83357 9.05264 6.83357C8.60551 6.83357 8.24305 6.47111 8.24305 6.02399C8.24305 5.57686 8.60551 5.2144 9.05264 5.2144C9.49976 5.2144 9.86222 5.57686 9.86222 6.02399Z" stroke="#F5C678" stroke-linejoin="round"/>
<path d="M9.05264 8.25035C9.38798 8.25035 9.65983 8.5222 9.65983 8.85754V12.9055C9.65983 13.2408 9.38798 13.5127 9.05264 13.5127C8.71729 13.5127 8.44544 13.2408 8.44544 12.9055V8.85754C8.44544 8.5222 8.71729 8.25035 9.05264 8.25035Z" stroke="#F5C678" stroke-linejoin="round"/>
<path fill-rule="evenodd" clip-rule="evenodd" d="M10.8907 1.97009C10.0066 0.67664 8.09861 0.676635 7.21456 1.97009L6.86488 2.4817C4.6741 5.68703 2.79184 9.09266 1.24332 12.653L1.17029 12.8209C0.624579 14.0755 1.44903 15.5002 2.80877 15.6522C6.95842 16.1159 11.1468 16.1159 15.2965 15.6522C16.6562 15.5002 17.4807 14.0755 16.935 12.8209L16.8619 12.653C15.3134 9.09266 13.4311 5.68704 11.2404 2.4817L10.8907 1.97009ZM8.21714 2.65533C8.61898 2.0674 9.48626 2.0674 9.8881 2.65533L10.2378 3.16695C12.3853 6.30897 14.2304 9.64733 15.7483 13.1373L15.8213 13.3052C16.0411 13.8104 15.7091 14.3841 15.1616 14.4453C11.1016 14.8991 7.00366 14.8991 2.94366 14.4453C2.39614 14.3841 2.06416 13.8104 2.28389 13.3052L2.35693 13.1373C3.87487 9.64733 5.71995 6.30897 7.86746 3.16694L8.21714 2.65533Z" stroke="#F5C678" stroke-linejoin="round"/>
</svg>
