<svg width="18" height="18" viewBox="0 0 18 18" fill="none" xmlns="http://www.w3.org/2000/svg">
<path fill-rule="evenodd" clip-rule="evenodd" d="M16.8742 2.18193C17.1445 1.91155 17.1445 1.47317 16.8742 1.20279C16.6038 0.932404 16.1654 0.932404 15.8951 1.20279L1.12585 15.9731C0.855486 16.2435 0.855486 16.6818 1.12585 16.9522C1.39621 17.2226 1.83456 17.2226 2.10492 16.9522L4.73282 14.3241C5.99403 14.9179 7.44663 15.3087 9 15.3087C11.4776 15.3087 13.6988 14.3144 15.2959 13.0885C16.096 12.4744 16.7568 11.7893 17.2236 11.1166C17.6775 10.4625 18 9.74465 18 9.0775C18 8.41034 17.6775 7.69252 17.2236 7.03841C16.7568 6.36572 16.096 5.68059 15.2959 5.06647C15.054 4.88075 14.7977 4.70035 14.5283 4.52791L16.8742 2.18193ZM13.5226 5.53367L11.888 7.1684C12.2505 7.71566 12.4615 8.37193 12.4615 9.0775C12.4615 10.9894 10.9118 12.5393 9 12.5393C8.29448 12.5393 7.63826 12.3282 7.09104 11.9657L5.7833 13.2736C6.76686 13.6743 7.85734 13.924 9 13.924C11.1107 13.924 13.0433 13.072 14.4529 11.99C15.1562 11.4502 15.7121 10.866 16.0861 10.3271C16.4729 9.76959 16.6154 9.33349 16.6154 9.0775C16.6154 8.82151 16.4729 8.38541 16.0861 7.82789C15.7121 7.28896 15.1562 6.70476 14.4529 6.16495C14.1638 5.94307 13.8527 5.73085 13.5226 5.53367ZM8.10456 10.9521C8.37569 11.0819 8.67936 11.1546 9 11.1546C10.1471 11.1546 11.0769 10.2246 11.0769 9.0775C11.0769 8.75684 11.0043 8.45315 10.8745 8.18199L8.10456 10.9521Z" fill="black" fill-opacity="0.5"/>
<path d="M9 2.84629C9.94187 2.84629 10.8467 2.98998 11.6943 3.23548C11.8729 3.2872 11.926 3.51049 11.7945 3.64196L11.0631 4.37349C11.0012 4.43534 10.9116 4.4601 10.8263 4.44059C10.2393 4.30631 9.62754 4.231 9 4.231C6.88934 4.231 4.95672 5.08299 3.54708 6.16495C2.84379 6.70476 2.28791 7.28896 1.91393 7.82789C1.52705 8.38541 1.38462 8.82151 1.38462 9.0775C1.38462 9.33349 1.52705 9.76959 1.91393 10.3271C2.2374 10.7932 2.69694 11.2932 3.27025 11.7691C3.38586 11.8651 3.39693 12.0402 3.29069 12.1464L2.66389 12.7733C2.57358 12.8636 2.42946 12.8715 2.33173 12.7893C1.69792 12.256 1.16868 11.6819 0.776403 11.1166C0.322496 10.4625 0 9.74465 0 9.0775C0 8.41034 0.322496 7.69252 0.776403 7.03841C1.24321 6.36572 1.90396 5.68059 2.70407 5.06647C4.30122 3.84058 6.52245 2.84629 9 2.84629Z" fill="black" fill-opacity="0.5"/>
<path d="M9 5.61571C9.09741 5.61571 9.19389 5.61974 9.28927 5.62763C9.48629 5.64393 9.55769 5.87898 9.4179 6.01878L8.32374 7.11302C7.72069 7.3206 7.24323 7.79809 7.03566 8.40119L5.94154 9.49539C5.80174 9.6352 5.56667 9.5638 5.55037 9.36677C5.54248 9.27139 5.53846 9.17491 5.53846 9.0775C5.53846 7.16561 7.08824 5.61571 9 5.61571Z" fill="black" fill-opacity="0.5"/>
</svg>
