<svg width="18" height="18" viewBox="0 0 18 18" fill="none" xmlns="http://www.w3.org/2000/svg">
<path fill-rule="evenodd" clip-rule="evenodd" d="M5.53846 9.2325C5.53846 7.32021 7.08824 5.77 9 5.77C10.9118 5.77 12.4615 7.32021 12.4615 9.2325C12.4615 11.1448 10.9118 12.695 9 12.695C7.08824 12.695 5.53846 11.1448 5.53846 9.2325ZM9 7.155C7.85295 7.155 6.92308 8.08513 6.92308 9.2325C6.92308 10.3799 7.85295 11.31 9 11.31C10.1471 11.31 11.0769 10.3799 11.0769 9.2325C11.0769 8.08513 10.1471 7.155 9 7.155Z" fill="black" fill-opacity="0.5"/>
<path fill-rule="evenodd" clip-rule="evenodd" d="M1.91393 7.98263C1.52705 8.54026 1.38462 8.97646 1.38462 9.2325C1.38462 9.48854 1.52705 9.92474 1.91393 10.4824C2.28791 11.0214 2.84379 11.6057 3.54708 12.1456C4.95672 13.2278 6.88934 14.08 9 14.08C11.1107 14.08 13.0433 13.2278 14.4529 12.1456C15.1562 11.6057 15.7121 11.0214 16.0861 10.4824C16.4729 9.92474 16.6154 9.48854 16.6154 9.2325C16.6154 8.97646 16.4729 8.54026 16.0861 7.98263C15.7121 7.44359 15.1562 6.85927 14.4529 6.31935C13.0433 5.23716 11.1107 4.385 9 4.385C6.88934 4.385 4.95672 5.23716 3.54708 6.31935C2.84379 6.85927 2.28791 7.44359 1.91393 7.98263ZM2.70407 5.22065C4.30122 3.9945 6.52245 3 9 3C11.4776 3 13.6988 3.9945 15.2959 5.22065C16.096 5.83489 16.7568 6.52016 17.2236 7.19299C17.6775 7.84724 18 8.56521 18 9.2325C18 9.89979 17.6775 10.6178 17.2236 11.272C16.7568 11.9448 16.096 12.6301 15.2959 13.2444C13.6988 14.4705 11.4776 15.465 9 15.465C6.52245 15.465 4.30122 14.4705 2.70407 13.2444C1.90396 12.6301 1.24321 11.9448 0.776403 11.272C0.322496 10.6178 0 9.89979 0 9.2325C0 8.56521 0.322496 7.84724 0.776403 7.19299C1.24321 6.52016 1.90396 5.83489 2.70407 5.22065Z" fill="black" fill-opacity="0.5"/>
</svg>